<mxfile host="65bd71144e">
    <diagram id="2PzwNK4ZTvdfFSlSEhgh" name="Page-1">
        <mxGraphModel dx="1606" dy="685" grid="1" gridSize="10" guides="1" tooltips="1" connect="1" arrows="1" fold="1" page="1" pageScale="1" pageWidth="850" pageHeight="1100" math="0" shadow="0">
            <root>
                <mxCell id="0"/>
                <mxCell id="1" parent="0"/>
                <mxCell id="3" style="edgeStyle=none;html=1;entryX=0.562;entryY=1.032;entryDx=0;entryDy=0;entryPerimeter=0;" parent="1" source="2" target="5" edge="1">
                    <mxGeometry relative="1" as="geometry">
                        <mxPoint x="360" y="250" as="targetPoint"/>
                    </mxGeometry>
                </mxCell>
                <mxCell id="6" style="edgeStyle=none;html=1;fontSize=10;" parent="1" source="2" target="8" edge="1">
                    <mxGeometry relative="1" as="geometry">
                        <mxPoint x="400" y="450" as="targetPoint"/>
                    </mxGeometry>
                </mxCell>
                <mxCell id="25" style="edgeStyle=none;html=1;entryX=-0.031;entryY=0.373;entryDx=0;entryDy=0;entryPerimeter=0;" parent="1" source="2" target="24" edge="1">
                    <mxGeometry relative="1" as="geometry"/>
                </mxCell>
                <mxCell id="2" value="" style="whiteSpace=wrap;html=1;" parent="1" vertex="1">
                    <mxGeometry x="80" y="290" width="220" height="120" as="geometry"/>
                </mxCell>
                <mxCell id="4" value="&lt;span style=&quot;font-weight: normal&quot;&gt;St.py&lt;/span&gt;" style="text;strokeColor=none;fillColor=none;html=1;fontSize=24;fontStyle=1;verticalAlign=middle;align=center;" parent="1" vertex="1">
                    <mxGeometry x="140" y="330" width="100" height="40" as="geometry"/>
                </mxCell>
                <mxCell id="5" value="&lt;font style=&quot;font-size: 10px&quot;&gt;check.py&lt;/font&gt;" style="label;whiteSpace=wrap;html=1;image=img/clipart/Gear_128x128.png;" parent="1" vertex="1">
                    <mxGeometry x="190" y="170" width="165" height="60" as="geometry"/>
                </mxCell>
                <mxCell id="8" value="&lt;h1 style=&quot;text-align: center&quot;&gt;&lt;font style=&quot;font-weight: normal ; font-size: 11px&quot; color=&quot;#ffffff&quot;&gt;banner.py&lt;/font&gt;&lt;/h1&gt;" style="label;whiteSpace=wrap;html=1;image=img/clipart/Gear_128x128.png;fontSize=10;fontColor=#3CFF00;" parent="1" vertex="1">
                    <mxGeometry x="240" y="470" width="140" height="60" as="geometry"/>
                </mxCell>
                <mxCell id="12" value="&lt;div style=&quot;color: rgb(171 , 178 , 191) ; background-color: rgb(40 , 44 , 52) ; font-family: &amp;#34;menlo&amp;#34; , &amp;#34;monaco&amp;#34; , &amp;#34;courier new&amp;#34; , monospace ; font-size: 12px ; line-height: 18px&quot;&gt;&lt;span style=&quot;color: #61afef&quot;&gt;show_menu&lt;/span&gt;()&lt;/div&gt;" style="whiteSpace=wrap;html=1;align=center;verticalAlign=middle;treeFolding=1;treeMoving=1;newEdgeStyle={&quot;edgeStyle&quot;:&quot;elbowEdgeStyle&quot;,&quot;startArrow&quot;:&quot;none&quot;,&quot;endArrow&quot;:&quot;none&quot;};fontSize=11;fontColor=#61AFEF;" parent="1" vertex="1" collapsed="1">
                    <mxGeometry x="340" y="570" width="100" height="50" as="geometry"/>
                </mxCell>
                <mxCell id="13" value="" style="edgeStyle=elbowEdgeStyle;elbow=vertical;startArrow=none;endArrow=none;fontSize=11;fontColor=#61AFEF;" parent="1" edge="1">
                    <mxGeometry relative="1" as="geometry">
                        <mxPoint x="310" y="530" as="sourcePoint"/>
                        <mxPoint x="379.9999999999998" y="570" as="targetPoint"/>
                    </mxGeometry>
                </mxCell>
                <mxCell id="15" value="&lt;h1 style=&quot;color: rgb(60 , 255 , 0)&quot;&gt;&lt;font color=&quot;#61afef&quot; style=&quot;font-weight: normal ; font-size: 11px&quot;&gt;banner()&lt;/font&gt;&lt;/h1&gt;" style="whiteSpace=wrap;html=1;align=center;verticalAlign=middle;treeFolding=1;treeMoving=1;newEdgeStyle={&quot;edgeStyle&quot;:&quot;elbowEdgeStyle&quot;,&quot;startArrow&quot;:&quot;none&quot;,&quot;endArrow&quot;:&quot;none&quot;};" parent="1" vertex="1" collapsed="1">
                    <mxGeometry x="190" y="580" width="100" height="40" as="geometry"/>
                </mxCell>
                <mxCell id="16" value="" style="edgeStyle=elbowEdgeStyle;elbow=vertical;startArrow=none;endArrow=none;exitX=0.25;exitY=1;exitDx=0;exitDy=0;" parent="1" source="8" target="15" edge="1">
                    <mxGeometry relative="1" as="geometry">
                        <mxPoint x="170" y="540" as="sourcePoint"/>
                    </mxGeometry>
                </mxCell>
                <mxCell id="20" value="&lt;span style=&quot;font-size: 10px ; text-align: left ; background-color: rgb(40 , 44 , 52) ; font-family: &amp;#34;menlo&amp;#34; , &amp;#34;monaco&amp;#34; , &amp;#34;courier new&amp;#34; , monospace&quot;&gt;&lt;font color=&quot;#61afef&quot;&gt;dependency&lt;/font&gt;&lt;/span&gt;&lt;span style=&quot;font-size: 10px ; text-align: left ; color: rgb(97 , 175 , 239) ; background-color: rgb(40 , 44 , 52) ; font-family: &amp;#34;menlo&amp;#34; , &amp;#34;monaco&amp;#34; , &amp;#34;courier new&amp;#34; , monospace&quot;&gt;()&lt;/span&gt;" style="whiteSpace=wrap;html=1;shape=partialRectangle;top=0;left=0;bottom=1;right=0;points=[[0,1],[1,1]];fillColor=none;align=center;verticalAlign=bottom;routingCenterY=0.5;snapToPoint=1;recursiveResize=0;autosize=1;treeFolding=1;treeMoving=1;newEdgeStyle={&quot;edgeStyle&quot;:&quot;entityRelationEdgeStyle&quot;,&quot;startArrow&quot;:&quot;none&quot;,&quot;endArrow&quot;:&quot;none&quot;,&quot;segment&quot;:10,&quot;curved&quot;:1};" parent="1" vertex="1" collapsed="1">
                    <mxGeometry x="300" y="110" width="100" height="20" as="geometry"/>
                </mxCell>
                <mxCell id="21" value="" style="edgeStyle=entityRelationEdgeStyle;startArrow=none;endArrow=none;segment=10;" parent="1" target="20" edge="1">
                    <mxGeometry relative="1" as="geometry">
                        <mxPoint x="270" y="170" as="sourcePoint"/>
                    </mxGeometry>
                </mxCell>
                <mxCell id="24" value="&lt;div style=&quot;color: rgb(171 , 178 , 191) ; background-color: rgb(40 , 44 , 52) ; font-family: &amp;#34;menlo&amp;#34; , &amp;#34;monaco&amp;#34; , &amp;#34;courier new&amp;#34; , monospace ; font-weight: normal ; line-height: 18px&quot;&gt;&lt;span style=&quot;color: #e5c07b&quot;&gt;localhost.py&lt;/span&gt;&lt;/div&gt;" style="label;whiteSpace=wrap;html=1;image=img/clipart/Gear_128x128.png;" parent="1" vertex="1">
                    <mxGeometry x="660" y="330" width="150" height="60" as="geometry"/>
                </mxCell>
                <mxCell id="26" value="&lt;div style=&quot;color: rgb(171 , 178 , 191) ; background-color: rgb(40 , 44 , 52) ; font-family: &amp;#34;menlo&amp;#34; , &amp;#34;monaco&amp;#34; , &amp;#34;courier new&amp;#34; , monospace ; line-height: 18px&quot;&gt;&lt;span style=&quot;color: rgb(97 , 175 , 239)&quot;&gt;run_php_server&lt;/span&gt;(&lt;span style=&quot;color: rgb(224 , 108 , 117) ; font-style: italic&quot;&gt;port&lt;/span&gt;,&lt;span style=&quot;color: rgb(224 , 108 , 117) ; font-style: italic&quot;&gt;dir_name&lt;/span&gt;)&lt;br&gt;&lt;/div&gt;" style="whiteSpace=wrap;html=1;align=center;verticalAlign=middle;treeFolding=1;treeMoving=1;newEdgeStyle={&quot;edgeStyle&quot;:&quot;elbowEdgeStyle&quot;,&quot;startArrow&quot;:&quot;none&quot;,&quot;endArrow&quot;:&quot;none&quot;};" parent="1" vertex="1">
                    <mxGeometry x="720" y="430" width="230" height="70" as="geometry"/>
                </mxCell>
                <mxCell id="27" value="" style="edgeStyle=elbowEdgeStyle;elbow=vertical;startArrow=none;endArrow=none;" parent="1" target="26" edge="1">
                    <mxGeometry relative="1" as="geometry">
                        <mxPoint x="700" y="390" as="sourcePoint"/>
                    </mxGeometry>
                </mxCell>
                <mxCell id="28" value="" style="edgeStyle=elbowEdgeStyle;elbow=horizontal;endArrow=classic;html=1;fontSize=12;" parent="1" edge="1">
                    <mxGeometry width="50" height="50" relative="1" as="geometry">
                        <mxPoint x="810" y="360" as="sourcePoint"/>
                        <mxPoint x="850" y="310" as="targetPoint"/>
                    </mxGeometry>
                </mxCell>
                <mxCell id="29" value="&lt;div&gt;&lt;span style=&quot;font-size: 11px ; color: rgb(97 , 175 , 239) ; font-family: &amp;#34;menlo&amp;#34; , &amp;#34;monaco&amp;#34; , &amp;#34;courier new&amp;#34; , monospace ; background-color: rgb(40 , 44 , 52)&quot;&gt;After_click&lt;/span&gt;&lt;span style=&quot;font-size: 11px ; background-color: rgb(40 , 44 , 52) ; color: rgb(171 , 178 , 191) ; font-family: &amp;#34;menlo&amp;#34; , &amp;#34;monaco&amp;#34; , &amp;#34;courier new&amp;#34; , monospace&quot;&gt;()&lt;/span&gt;&lt;/div&gt;" style="html=1;whiteSpace=wrap;container=1;recursiveResize=0;collapsible=0;fontSize=12;align=center;" parent="1" vertex="1">
                    <mxGeometry x="850" y="280" width="160" height="70" as="geometry"/>
                </mxCell>
                <mxCell id="30" value="" style="triangle;html=1;whiteSpace=wrap;fontSize=12;" parent="29" vertex="1">
                    <mxGeometry x="10" y="20" width="20" height="30" as="geometry"/>
                </mxCell>
                <mxCell id="53" value="1" style="ellipse;whiteSpace=wrap;html=1;aspect=fixed;strokeWidth=2;fontFamily=Tahoma;spacingBottom=4;spacingRight=2;strokeColor=#d3d3d3;" vertex="1" parent="29">
                    <mxGeometry x="130" y="10" width="20" height="20" as="geometry"/>
                </mxCell>
                <mxCell id="31" value="" style="edgeStyle=isometricEdgeStyle;endArrow=none;html=1;elbow=vertical;exitX=0.5;exitY=0;exitDx=0;exitDy=0;" parent="1" source="29" edge="1">
                    <mxGeometry width="50" height="100" relative="1" as="geometry">
                        <mxPoint x="880" y="280" as="sourcePoint"/>
                        <mxPoint x="870" y="190" as="targetPoint"/>
                        <Array as="points">
                            <mxPoint x="910" y="230"/>
                        </Array>
                    </mxGeometry>
                </mxCell>
                <mxCell id="32" value="check &amp;gt; &lt;font color=&quot;#cc0000&quot;&gt;info.json&lt;/font&gt;" style="label;whiteSpace=wrap;html=1;align=center;verticalAlign=bottom;spacingLeft=0;spacingBottom=4;imageAlign=center;imageVerticalAlign=top;image=img/clipart/Gear_128x128.png;" parent="1" vertex="1">
                    <mxGeometry x="800" y="110" width="120" height="80" as="geometry"/>
                </mxCell>
                <mxCell id="35" value="" style="edgeStyle=elbowEdgeStyle;elbow=horizontal;endArrow=classic;html=1;exitX=0.832;exitY=0.994;exitDx=0;exitDy=0;exitPerimeter=0;" parent="1" source="29" edge="1">
                    <mxGeometry width="50" height="50" relative="1" as="geometry">
                        <mxPoint x="980" y="360" as="sourcePoint"/>
                        <mxPoint x="1090" y="410" as="targetPoint"/>
                        <Array as="points">
                            <mxPoint x="990" y="420"/>
                        </Array>
                    </mxGeometry>
                </mxCell>
                <mxCell id="36" value="&lt;div&gt;&lt;span style=&quot;font-size: 11px ; color: rgb(97 , 175 , 239) ; font-family: &amp;#34;menlo&amp;#34; , &amp;#34;monaco&amp;#34; , &amp;#34;courier new&amp;#34; , monospace ; background-color: rgb(40 , 44 , 52)&quot;&gt;Before_click&lt;/span&gt;&lt;span style=&quot;font-size: 11px ; background-color: rgb(40 , 44 , 52) ; color: rgb(171 , 178 , 191) ; font-family: &amp;#34;menlo&amp;#34; , &amp;#34;monaco&amp;#34; , &amp;#34;courier new&amp;#34; , monospace&quot;&gt;()&lt;/span&gt;&lt;/div&gt;" style="html=1;whiteSpace=wrap;container=1;recursiveResize=0;collapsible=0;fontSize=12;align=center;" parent="1" vertex="1">
                    <mxGeometry x="1090" y="380" width="160" height="70" as="geometry"/>
                </mxCell>
                <mxCell id="37" value="" style="triangle;html=1;whiteSpace=wrap;fontSize=12;" parent="36" vertex="1">
                    <mxGeometry x="10" y="20" width="20" height="30" as="geometry"/>
                </mxCell>
                <mxCell id="54" value="2" style="ellipse;whiteSpace=wrap;html=1;aspect=fixed;strokeWidth=2;fontFamily=Tahoma;spacingBottom=4;spacingRight=2;strokeColor=#d3d3d3;" vertex="1" parent="36">
                    <mxGeometry x="132" y="8" width="20" height="20" as="geometry"/>
                </mxCell>
                <mxCell id="38" value="" style="edgeStyle=isometricEdgeStyle;endArrow=none;html=1;elbow=vertical;exitX=0.5;exitY=0;exitDx=0;exitDy=0;" parent="1" edge="1">
                    <mxGeometry width="50" height="100" relative="1" as="geometry">
                        <mxPoint x="1220" y="540" as="sourcePoint"/>
                        <mxPoint x="1160" y="450" as="targetPoint"/>
                        <Array as="points">
                            <mxPoint x="1200" y="490"/>
                        </Array>
                    </mxGeometry>
                </mxCell>
                <mxCell id="39" value="check:&lt;span style=&quot;color: rgb(152 , 195 , 121) ; background-color: rgb(40 , 44 , 52) ; font-family: &amp;#34;menlo&amp;#34; , &amp;#34;monaco&amp;#34; , &amp;#34;courier new&amp;#34; , monospace ; font-weight: normal&quot;&gt;result.json&lt;/span&gt;" style="label;whiteSpace=wrap;html=1;align=center;verticalAlign=bottom;spacingLeft=0;spacingBottom=4;imageAlign=center;imageVerticalAlign=top;image=img/clipart/Gear_128x128.png;" parent="1" vertex="1">
                    <mxGeometry x="1160" y="540" width="120" height="80" as="geometry"/>
                </mxCell>
                <mxCell id="47" value="" style="edgeStyle=entityRelationEdgeStyle;startArrow=none;endArrow=none;segment=10;exitX=0.425;exitY=-0.045;exitDx=0;exitDy=0;exitPerimeter=0;" edge="1" parent="1">
                    <mxGeometry relative="1" as="geometry">
                        <mxPoint x="220.125" y="169.99999999999994" as="sourcePoint"/>
                        <mxPoint x="160" y="112.7" as="targetPoint"/>
                    </mxGeometry>
                </mxCell>
                <mxCell id="48" value="&lt;span style=&quot;font-size: 10px ; text-align: left ; background-color: rgb(40 , 44 , 52) ; font-family: &amp;#34;menlo&amp;#34; , &amp;#34;monaco&amp;#34; , &amp;#34;courier new&amp;#34; , monospace&quot;&gt;&lt;font color=&quot;#61afef&quot;&gt;check_update&lt;/font&gt;&lt;/span&gt;&lt;span style=&quot;font-size: 10px ; text-align: left ; color: rgb(97 , 175 , 239) ; background-color: rgb(40 , 44 , 52) ; font-family: &amp;#34;menlo&amp;#34; , &amp;#34;monaco&amp;#34; , &amp;#34;courier new&amp;#34; , monospace&quot;&gt;()&lt;/span&gt;" style="whiteSpace=wrap;html=1;shape=partialRectangle;top=0;left=0;bottom=1;right=0;points=[[0,1],[1,1]];fillColor=none;align=center;verticalAlign=bottom;routingCenterY=0.5;snapToPoint=1;recursiveResize=0;autosize=1;treeFolding=1;treeMoving=1;newEdgeStyle={&quot;edgeStyle&quot;:&quot;entityRelationEdgeStyle&quot;,&quot;startArrow&quot;:&quot;none&quot;,&quot;endArrow&quot;:&quot;none&quot;,&quot;segment&quot;:10,&quot;curved&quot;:1};" vertex="1" collapsed="1" parent="1">
                    <mxGeometry x="160" y="92.7" width="120" height="20" as="geometry"/>
                </mxCell>
                <mxCell id="51" value="&lt;div style=&quot;color: rgb(171 , 178 , 191) ; background-color: rgb(40 , 44 , 52) ; font-family: &amp;#34;menlo&amp;#34; , &amp;#34;monaco&amp;#34; , &amp;#34;courier new&amp;#34; , monospace ; line-height: 18px&quot;&gt;&lt;span style=&quot;color: #e5c07b&quot;&gt;handler.py&lt;/span&gt;&lt;/div&gt;" style="html=1;whiteSpace=wrap;container=1;recursiveResize=0;collapsible=0;" vertex="1" parent="1">
                    <mxGeometry x="410" y="320" width="160" height="70" as="geometry"/>
                </mxCell>
                <mxCell id="52" value="" style="triangle;html=1;whiteSpace=wrap;" vertex="1" parent="51">
                    <mxGeometry x="20" y="20" width="20" height="30" as="geometry"/>
                </mxCell>
                <mxCell id="56" value="" style="image;html=1;image=img/lib/clip_art/computers/Software_128x128.png;" vertex="1" parent="1">
                    <mxGeometry x="90" y="322.5" width="50" height="55" as="geometry"/>
                </mxCell>
            </root>
        </mxGraphModel>
    </diagram>
</mxfile>